<svg width="187" height="43" viewBox="0 0 187 43" fill="none" xmlns="http://www.w3.org/2000/svg">
<rect width="43" height="43" rx="5" fill="black"/>
<rect x="6.72485" y="21.5" width="21.8308" height="21.8308" rx="5" transform="rotate(-45 6.72485 21.5)" fill="white"/>
<path d="M66.0909 18.1875C65.9716 17.7727 65.804 17.4062 65.5881 17.0881C65.3722 16.7642 65.108 16.4915 64.7955 16.2699C64.4886 16.0426 64.1364 15.8693 63.7386 15.75C63.3466 15.6307 62.9119 15.571 62.4347 15.571C61.5426 15.571 60.7585 15.7926 60.0824 16.2358C59.4119 16.679 58.8892 17.3239 58.5142 18.1705C58.1392 19.0114 57.9517 20.0398 57.9517 21.2557C57.9517 22.4716 58.1364 23.5057 58.5057 24.358C58.875 25.2102 59.3977 25.8608 60.0739 26.3097C60.75 26.7528 61.5483 26.9744 62.4688 26.9744C63.304 26.9744 64.017 26.8267 64.608 26.5312C65.2045 26.2301 65.6591 25.8068 65.9716 25.2614C66.2898 24.7159 66.4489 24.071 66.4489 23.3267L67.1989 23.4375H62.6989V20.6591H70.0028V22.858C70.0028 24.392 69.679 25.7102 69.0312 26.8125C68.3835 27.9091 67.4915 28.7557 66.3551 29.3523C65.2188 29.9432 63.9176 30.2386 62.4517 30.2386C60.8153 30.2386 59.3778 29.8778 58.1392 29.1562C56.9006 28.429 55.9347 27.3977 55.2415 26.0625C54.554 24.7216 54.2102 23.1307 54.2102 21.2898C54.2102 19.875 54.4148 18.6136 54.8239 17.5057C55.2386 16.392 55.8182 15.4489 56.5625 14.6761C57.3068 13.9034 58.1733 13.3153 59.1619 12.9119C60.1506 12.5085 61.2216 12.3068 62.375 12.3068C63.3636 12.3068 64.2841 12.4517 65.1364 12.7415C65.9886 13.0256 66.7443 13.429 67.4034 13.9517C68.0682 14.4744 68.6108 15.0966 69.0312 15.8182C69.4517 16.5341 69.7216 17.3239 69.8409 18.1875H66.0909ZM81.1016 24.4261V16.9091H84.7322V30H81.2464V27.6222H81.1101C80.8146 28.3892 80.3232 29.0057 79.6357 29.4716C78.9538 29.9375 78.1214 30.1705 77.1385 30.1705C76.2635 30.1705 75.4936 29.9716 74.8288 29.5739C74.1641 29.1761 73.6442 28.6108 73.2692 27.8778C72.8999 27.1449 72.7124 26.267 72.7067 25.2443V16.9091H76.3374V24.5966C76.343 25.3693 76.5504 25.9801 76.9595 26.429C77.3686 26.8778 77.9169 27.1023 78.6044 27.1023C79.0419 27.1023 79.451 27.0028 79.8317 26.804C80.2124 26.5994 80.5192 26.2983 80.7521 25.9006C80.9908 25.5028 81.1072 25.0114 81.1016 24.4261ZM87.6364 30V16.9091H91.267V30H87.6364ZM89.4602 15.2216C88.9205 15.2216 88.4574 15.0426 88.071 14.6847C87.6903 14.321 87.5 13.8864 87.5 13.3807C87.5 12.8807 87.6903 12.4517 88.071 12.0938C88.4574 11.7301 88.9205 11.5483 89.4602 11.5483C90 11.5483 90.4602 11.7301 90.8409 12.0938C91.2273 12.4517 91.4205 12.8807 91.4205 13.3807C91.4205 13.8864 91.2273 14.321 90.8409 14.6847C90.4602 15.0426 90 15.2216 89.4602 15.2216ZM101.138 16.9091V19.6364H93.255V16.9091H101.138ZM95.0447 13.7727H98.6754V25.9773C98.6754 26.3125 98.7266 26.5739 98.8288 26.7614C98.9311 26.9432 99.0732 27.071 99.255 27.1449C99.4425 27.2187 99.6584 27.2557 99.9027 27.2557C100.073 27.2557 100.244 27.2415 100.414 27.2131C100.585 27.179 100.715 27.1534 100.806 27.1364L101.377 29.8381C101.195 29.8949 100.94 29.9602 100.61 30.0341C100.281 30.1136 99.88 30.1619 99.4084 30.179C98.5334 30.2131 97.7663 30.0966 97.1072 29.8295C96.4538 29.5625 95.9453 29.1477 95.5817 28.5852C95.218 28.0227 95.0391 27.3125 95.0447 26.4545V13.7727ZM107.237 30.2472C106.401 30.2472 105.657 30.1023 105.004 29.8125C104.35 29.517 103.833 29.0824 103.452 28.5085C103.077 27.929 102.89 27.2074 102.89 26.3438C102.89 25.6165 103.023 25.0057 103.29 24.5114C103.558 24.017 103.921 23.6193 104.381 23.3182C104.842 23.017 105.364 22.7898 105.95 22.6364C106.54 22.483 107.16 22.375 107.808 22.3125C108.569 22.233 109.183 22.1591 109.648 22.0909C110.114 22.017 110.452 21.9091 110.663 21.767C110.873 21.625 110.978 21.4148 110.978 21.1364V21.0852C110.978 20.5455 110.808 20.1278 110.467 19.8324C110.131 19.5369 109.654 19.3892 109.035 19.3892C108.381 19.3892 107.862 19.5341 107.475 19.8239C107.089 20.108 106.833 20.4659 106.708 20.8977L103.35 20.625C103.521 19.8295 103.856 19.142 104.356 18.5625C104.856 17.9773 105.501 17.5284 106.29 17.2159C107.086 16.8977 108.006 16.7386 109.052 16.7386C109.779 16.7386 110.475 16.8239 111.14 16.9943C111.81 17.1648 112.404 17.429 112.921 17.7869C113.444 18.1449 113.856 18.6051 114.157 19.1676C114.458 19.7244 114.609 20.392 114.609 21.1705V30H111.165V28.1847H111.063C110.853 28.5938 110.572 28.9545 110.219 29.267C109.867 29.5739 109.444 29.8153 108.95 29.9915C108.455 30.1619 107.884 30.2472 107.237 30.2472ZM108.276 27.7415C108.81 27.7415 109.282 27.6364 109.691 27.4261C110.1 27.2102 110.421 26.9205 110.654 26.5568C110.887 26.1932 111.004 25.7812 111.004 25.321V23.9318C110.89 24.0057 110.734 24.0739 110.535 24.1364C110.342 24.1932 110.123 24.2472 109.879 24.2983C109.634 24.3437 109.39 24.3864 109.146 24.4261C108.901 24.4602 108.68 24.4915 108.481 24.5199C108.055 24.5824 107.683 24.6818 107.364 24.8182C107.046 24.9545 106.799 25.1392 106.623 25.3722C106.447 25.5994 106.359 25.8835 106.359 26.2244C106.359 26.7188 106.538 27.0966 106.896 27.358C107.259 27.6136 107.719 27.7415 108.276 27.7415ZM117.425 30V16.9091H120.945V19.1932H121.082C121.32 18.3807 121.721 17.767 122.283 17.3523C122.846 16.9318 123.494 16.7216 124.227 16.7216C124.408 16.7216 124.604 16.733 124.815 16.7557C125.025 16.7784 125.21 16.8097 125.369 16.8494V20.071C125.198 20.0199 124.962 19.9744 124.661 19.9347C124.36 19.8949 124.085 19.875 123.835 19.875C123.3 19.875 122.823 19.9915 122.403 20.2244C121.988 20.4517 121.658 20.7699 121.414 21.179C121.175 21.5881 121.056 22.0597 121.056 22.5938V30H117.425ZM136.783 17.5653C136.714 16.8778 136.422 16.3437 135.905 15.9631C135.388 15.5824 134.686 15.392 133.8 15.392C133.197 15.392 132.689 15.4773 132.274 15.6477C131.859 15.8125 131.541 16.0426 131.32 16.3381C131.104 16.6335 130.996 16.9688 130.996 17.3438C130.984 17.6562 131.05 17.929 131.192 18.1619C131.339 18.3949 131.541 18.5966 131.797 18.767C132.053 18.9318 132.348 19.0767 132.683 19.2017C133.018 19.321 133.376 19.4233 133.757 19.5085L135.325 19.8835C136.087 20.054 136.786 20.2812 137.422 20.5653C138.058 20.8494 138.609 21.1989 139.075 21.6136C139.541 22.0284 139.902 22.517 140.158 23.0795C140.419 23.642 140.553 24.2869 140.558 25.0142C140.553 26.0824 140.28 27.0085 139.74 27.7926C139.206 28.571 138.433 29.1761 137.422 29.608C136.416 30.0341 135.203 30.2472 133.783 30.2472C132.374 30.2472 131.146 30.0312 130.101 29.5994C129.061 29.1676 128.249 28.5284 127.663 27.6818C127.084 26.8295 126.78 25.7756 126.751 24.5199H130.322C130.362 25.1051 130.53 25.5937 130.825 25.9858C131.126 26.3722 131.527 26.6648 132.027 26.8636C132.533 27.0568 133.104 27.1534 133.74 27.1534C134.365 27.1534 134.908 27.0625 135.368 26.8807C135.834 26.6989 136.195 26.446 136.45 26.1222C136.706 25.7983 136.834 25.4261 136.834 25.0057C136.834 24.6136 136.717 24.2841 136.484 24.017C136.257 23.75 135.922 23.5227 135.479 23.3352C135.041 23.1477 134.504 22.9773 133.868 22.8239L131.967 22.3466C130.496 21.9886 129.334 21.429 128.482 20.6676C127.629 19.9062 127.206 18.8807 127.212 17.5909C127.206 16.5341 127.487 15.6108 128.055 14.821C128.629 14.0312 129.416 13.4148 130.416 12.9716C131.416 12.5284 132.553 12.3068 133.825 12.3068C135.121 12.3068 136.251 12.5284 137.217 12.9716C138.189 13.4148 138.945 14.0312 139.484 14.821C140.024 15.6108 140.303 16.5256 140.32 17.5653H136.783ZM146.603 22.4318V30H142.972V12.5455H146.501V19.2188H146.654C146.95 18.446 147.427 17.8409 148.086 17.4034C148.745 16.9602 149.572 16.7386 150.566 16.7386C151.475 16.7386 152.268 16.9375 152.944 17.3352C153.626 17.7273 154.154 18.2926 154.529 19.0312C154.91 19.7642 155.097 20.642 155.092 21.6648V30H151.461V22.3125C151.467 21.5057 151.262 20.8778 150.847 20.429C150.438 19.9801 149.864 19.7557 149.126 19.7557C148.631 19.7557 148.194 19.8608 147.813 20.071C147.438 20.2812 147.143 20.5881 146.927 20.9915C146.717 21.3892 146.609 21.8693 146.603 22.4318ZM163.864 30.2557C162.54 30.2557 161.395 29.9744 160.429 29.4119C159.469 28.8437 158.727 28.054 158.205 27.0426C157.682 26.0256 157.42 24.8466 157.42 23.5057C157.42 22.1534 157.682 20.9716 158.205 19.9602C158.727 18.9432 159.469 18.1534 160.429 17.5909C161.395 17.0227 162.54 16.7386 163.864 16.7386C165.188 16.7386 166.33 17.0227 167.29 17.5909C168.256 18.1534 169 18.9432 169.523 19.9602C170.045 20.9716 170.307 22.1534 170.307 23.5057C170.307 24.8466 170.045 26.0256 169.523 27.0426C169 28.054 168.256 28.8437 167.29 29.4119C166.33 29.9744 165.188 30.2557 163.864 30.2557ZM163.881 27.4432C164.483 27.4432 164.986 27.2727 165.389 26.9318C165.793 26.5852 166.097 26.1136 166.301 25.517C166.511 24.9205 166.616 24.2415 166.616 23.4801C166.616 22.7188 166.511 22.0398 166.301 21.4432C166.097 20.8466 165.793 20.375 165.389 20.0284C164.986 19.6818 164.483 19.5085 163.881 19.5085C163.273 19.5085 162.761 19.6818 162.347 20.0284C161.938 20.375 161.628 20.8466 161.418 21.4432C161.213 22.0398 161.111 22.7188 161.111 23.4801C161.111 24.2415 161.213 24.9205 161.418 25.517C161.628 26.1136 161.938 26.5852 162.347 26.9318C162.761 27.2727 163.273 27.4432 163.881 27.4432ZM172.668 34.9091V16.9091H176.247V19.108H176.409C176.568 18.7557 176.798 18.3977 177.099 18.0341C177.406 17.6648 177.804 17.358 178.293 17.1136C178.787 16.8636 179.401 16.7386 180.134 16.7386C181.088 16.7386 181.969 16.9886 182.776 17.4886C183.582 17.983 184.227 18.7301 184.71 19.7301C185.193 20.7244 185.435 21.9716 185.435 23.4716C185.435 24.9318 185.199 26.1648 184.727 27.1705C184.261 28.1705 183.625 28.929 182.818 29.446C182.017 29.9574 181.119 30.2131 180.125 30.2131C179.42 30.2131 178.821 30.0966 178.327 29.8636C177.838 29.6307 177.438 29.3381 177.125 28.9858C176.812 28.6278 176.574 28.267 176.409 27.9034H176.298V34.9091H172.668ZM176.222 23.4545C176.222 24.233 176.33 24.9119 176.545 25.4915C176.761 26.071 177.074 26.5227 177.483 26.8466C177.892 27.1648 178.389 27.3239 178.974 27.3239C179.565 27.3239 180.065 27.1619 180.474 26.8381C180.884 26.5085 181.193 26.054 181.403 25.4744C181.619 24.8892 181.727 24.2159 181.727 23.4545C181.727 22.6989 181.622 22.0341 181.412 21.4602C181.202 20.8864 180.892 20.4375 180.483 20.1136C180.074 19.7898 179.571 19.6278 178.974 19.6278C178.384 19.6278 177.884 19.7841 177.474 20.0966C177.071 20.4091 176.761 20.8523 176.545 21.4261C176.33 22 176.222 22.6761 176.222 23.4545Z" fill="black"/>
</svg>
