<svg width="186" height="38" viewBox="0 0 186 38" fill="none" xmlns="http://www.w3.org/2000/svg">
<rect width="38" height="38" rx="5" fill="#D45E5E"/>
<rect x="8" y="30" width="22" height="22" rx="5" transform="rotate(-90 8 30)" fill="white"/>
<path d="M46.8523 13.5881V10.5455H61.1875V13.5881H55.8438V28H52.196V13.5881H46.8523ZM67.5476 28.2557C66.201 28.2557 65.0419 27.983 64.0703 27.4375C63.1044 26.8864 62.3601 26.108 61.8374 25.1023C61.3146 24.0909 61.0533 22.8949 61.0533 21.5142C61.0533 20.1676 61.3146 18.9858 61.8374 17.9688C62.3601 16.9517 63.0959 16.1591 64.0447 15.5909C64.9993 15.0227 66.1186 14.7386 67.4027 14.7386C68.2663 14.7386 69.0703 14.8778 69.8146 15.1562C70.5646 15.429 71.218 15.8409 71.7749 16.392C72.3374 16.9432 72.7749 17.6364 73.0874 18.4716C73.3999 19.3011 73.5561 20.2727 73.5561 21.3864V22.3835H62.5021V20.1335H70.1385C70.1385 19.6108 70.0249 19.1477 69.7976 18.7443C69.5703 18.3409 69.255 18.0256 68.8516 17.7983C68.4538 17.5653 67.9908 17.4489 67.4624 17.4489C66.9112 17.4489 66.4226 17.5767 65.9964 17.8324C65.576 18.0824 65.2464 18.4205 65.0078 18.8466C64.7692 19.267 64.647 19.7358 64.6413 20.2528V22.392C64.6413 23.0398 64.7607 23.5994 64.9993 24.071C65.2436 24.5426 65.5874 24.9062 66.0305 25.1619C66.4737 25.4176 66.9993 25.5455 67.6072 25.5455C68.0107 25.5455 68.38 25.4886 68.7152 25.375C69.0504 25.2614 69.3374 25.0909 69.576 24.8636C69.8146 24.6364 69.9964 24.358 70.1214 24.0284L73.4794 24.25C73.3089 25.0568 72.9595 25.7614 72.4311 26.3636C71.9084 26.9602 71.2322 27.4261 70.4027 27.7614C69.5788 28.0909 68.6271 28.2557 67.5476 28.2557ZM78.7251 14.9091L81.1286 19.4858L83.5916 14.9091H87.3161L83.5234 21.4545L87.4183 28H83.7109L81.1286 23.4744L78.5888 28H74.8388L78.7251 21.4545L74.9751 14.9091H78.7251ZM96.4354 14.9091V17.6364H88.5518V14.9091H96.4354ZM90.3416 11.7727H93.9723V23.9773C93.9723 24.3125 94.0234 24.5739 94.1257 24.7614C94.228 24.9432 94.37 25.071 94.5518 25.1449C94.7393 25.2187 94.9553 25.2557 95.1996 25.2557C95.37 25.2557 95.5405 25.2415 95.7109 25.2131C95.8814 25.179 96.0121 25.1534 96.103 25.1364L96.674 27.8381C96.4922 27.8949 96.2365 27.9602 95.907 28.0341C95.5774 28.1136 95.1768 28.1619 94.7053 28.179C93.8303 28.2131 93.0632 28.0966 92.4041 27.8295C91.7507 27.5625 91.2422 27.1477 90.8786 26.5852C90.5149 26.0227 90.3359 25.3125 90.3416 24.4545V11.7727ZM98.8004 28V14.9091H102.431V28H98.8004ZM100.624 13.2216C100.085 13.2216 99.6214 13.0426 99.2351 12.6847C98.8544 12.321 98.6641 11.8864 98.6641 11.3807C98.6641 10.8807 98.8544 10.4517 99.2351 10.0938C99.6214 9.73011 100.085 9.54829 100.624 9.54829C101.164 9.54829 101.624 9.73011 102.005 10.0938C102.391 10.4517 102.585 10.8807 102.585 11.3807C102.585 11.8864 102.391 12.321 102.005 12.6847C101.624 13.0426 101.164 13.2216 100.624 13.2216ZM108.97 10.5455V28H105.339V10.5455H108.97ZM117.844 28.2557C116.498 28.2557 115.339 27.983 114.367 27.4375C113.401 26.8864 112.657 26.108 112.134 25.1023C111.612 24.0909 111.35 22.8949 111.35 21.5142C111.35 20.1676 111.612 18.9858 112.134 17.9688C112.657 16.9517 113.393 16.1591 114.342 15.5909C115.296 15.0227 116.415 14.7386 117.7 14.7386C118.563 14.7386 119.367 14.8778 120.112 15.1562C120.862 15.429 121.515 15.8409 122.072 16.392C122.634 16.9432 123.072 17.6364 123.384 18.4716C123.697 19.3011 123.853 20.2727 123.853 21.3864V22.3835H112.799V20.1335H120.435C120.435 19.6108 120.322 19.1477 120.094 18.7443C119.867 18.3409 119.552 18.0256 119.148 17.7983C118.751 17.5653 118.288 17.4489 117.759 17.4489C117.208 17.4489 116.719 17.5767 116.293 17.8324C115.873 18.0824 115.543 18.4205 115.305 18.8466C115.066 19.267 114.944 19.7358 114.938 20.2528V22.392C114.938 23.0398 115.058 23.5994 115.296 24.071C115.54 24.5426 115.884 24.9062 116.327 25.1619C116.771 25.4176 117.296 25.5455 117.904 25.5455C118.308 25.5455 118.677 25.4886 119.012 25.375C119.347 25.2614 119.634 25.0909 119.873 24.8636C120.112 24.6364 120.293 24.358 120.418 24.0284L123.776 24.25C123.606 25.0568 123.256 25.7614 122.728 26.3636C122.205 26.9602 121.529 27.4261 120.7 27.7614C119.876 28.0909 118.924 28.2557 117.844 28.2557ZM135.759 15.5653C135.691 14.8778 135.398 14.3437 134.881 13.9631C134.364 13.5824 133.663 13.392 132.776 13.392C132.174 13.392 131.665 13.4773 131.251 13.6477C130.836 13.8125 130.518 14.0426 130.296 14.3381C130.08 14.6335 129.972 14.9688 129.972 15.3438C129.961 15.6562 130.026 15.929 130.168 16.1619C130.316 16.3949 130.518 16.5966 130.773 16.767C131.029 16.9318 131.325 17.0767 131.66 17.2017C131.995 17.321 132.353 17.4233 132.734 17.5085L134.302 17.8835C135.063 18.054 135.762 18.2812 136.398 18.5653C137.035 18.8494 137.586 19.1989 138.052 19.6136C138.518 20.0284 138.879 20.517 139.134 21.0795C139.396 21.642 139.529 22.2869 139.535 23.0142C139.529 24.0824 139.256 25.0085 138.717 25.7926C138.183 26.571 137.41 27.1761 136.398 27.608C135.393 28.0341 134.18 28.2472 132.759 28.2472C131.35 28.2472 130.123 28.0312 129.077 27.5994C128.038 27.1676 127.225 26.5284 126.64 25.6818C126.06 24.8295 125.756 23.7756 125.728 22.5199H129.299C129.339 23.1051 129.506 23.5937 129.802 23.9858C130.103 24.3722 130.504 24.6648 131.004 24.8636C131.509 25.0568 132.08 25.1534 132.717 25.1534C133.342 25.1534 133.884 25.0625 134.344 24.8807C134.81 24.6989 135.171 24.446 135.427 24.1222C135.683 23.7983 135.81 23.4261 135.81 23.0057C135.81 22.6136 135.694 22.2841 135.461 22.017C135.234 21.75 134.898 21.5227 134.455 21.3352C134.018 21.1477 133.481 20.9773 132.844 20.8239L130.944 20.3466C129.472 19.9886 128.31 19.429 127.458 18.6676C126.606 17.9062 126.183 16.8807 126.188 15.5909C126.183 14.5341 126.464 13.6108 127.032 12.821C127.606 12.0312 128.393 11.4148 129.393 10.9716C130.393 10.5284 131.529 10.3068 132.802 10.3068C134.097 10.3068 135.228 10.5284 136.194 10.9716C137.165 11.4148 137.921 12.0312 138.461 12.821C139.001 13.6108 139.279 14.5256 139.296 15.5653H135.759ZM145.58 20.4318V28H141.949V10.5455H145.477V17.2188H145.631C145.926 16.446 146.403 15.8409 147.062 15.4034C147.722 14.9602 148.548 14.7386 149.543 14.7386C150.452 14.7386 151.244 14.9375 151.92 15.3352C152.602 15.7273 153.131 16.2926 153.506 17.0312C153.886 17.7642 154.074 18.642 154.068 19.6648V28H150.438V20.3125C150.443 19.5057 150.239 18.8778 149.824 18.429C149.415 17.9801 148.841 17.7557 148.102 17.7557C147.608 17.7557 147.17 17.8608 146.79 18.071C146.415 18.2812 146.119 18.5881 145.903 18.9915C145.693 19.3892 145.585 19.8693 145.58 20.4318ZM162.84 28.2557C161.516 28.2557 160.371 27.9744 159.406 27.4119C158.445 26.8437 157.704 26.054 157.181 25.0426C156.658 24.0256 156.397 22.8466 156.397 21.5057C156.397 20.1534 156.658 18.9716 157.181 17.9602C157.704 16.9432 158.445 16.1534 159.406 15.5909C160.371 15.0227 161.516 14.7386 162.84 14.7386C164.164 14.7386 165.306 15.0227 166.266 15.5909C167.232 16.1534 167.977 16.9432 168.499 17.9602C169.022 18.9716 169.283 20.1534 169.283 21.5057C169.283 22.8466 169.022 24.0256 168.499 25.0426C167.977 26.054 167.232 26.8437 166.266 27.4119C165.306 27.9744 164.164 28.2557 162.84 28.2557ZM162.857 25.4432C163.46 25.4432 163.962 25.2727 164.366 24.9318C164.769 24.5852 165.073 24.1136 165.278 23.517C165.488 22.9205 165.593 22.2415 165.593 21.4801C165.593 20.7188 165.488 20.0398 165.278 19.4432C165.073 18.8466 164.769 18.375 164.366 18.0284C163.962 17.6818 163.46 17.5085 162.857 17.5085C162.249 17.5085 161.738 17.6818 161.323 18.0284C160.914 18.375 160.604 18.8466 160.394 19.4432C160.19 20.0398 160.087 20.7188 160.087 21.4801C160.087 22.2415 160.19 22.9205 160.394 23.517C160.604 24.1136 160.914 24.5852 161.323 24.9318C161.738 25.2727 162.249 25.4432 162.857 25.4432ZM171.644 32.9091V14.9091H175.224V17.108H175.386C175.545 16.7557 175.775 16.3977 176.076 16.0341C176.383 15.6648 176.781 15.358 177.269 15.1136C177.763 14.8636 178.377 14.7386 179.11 14.7386C180.065 14.7386 180.945 14.9886 181.752 15.4886C182.559 15.983 183.204 16.7301 183.687 17.7301C184.17 18.7244 184.411 19.9716 184.411 21.4716C184.411 22.9318 184.175 24.1648 183.704 25.1705C183.238 26.1705 182.602 26.929 181.795 27.446C180.994 27.9574 180.096 28.2131 179.102 28.2131C178.397 28.2131 177.798 28.0966 177.303 27.8636C176.815 27.6307 176.414 27.3381 176.102 26.9858C175.789 26.6278 175.55 26.267 175.386 25.9034H175.275V32.9091H171.644ZM175.198 21.4545C175.198 22.233 175.306 22.9119 175.522 23.4915C175.738 24.071 176.05 24.5227 176.46 24.8466C176.869 25.1648 177.366 25.3239 177.951 25.3239C178.542 25.3239 179.042 25.1619 179.451 24.8381C179.86 24.5085 180.17 24.054 180.38 23.4744C180.596 22.8892 180.704 22.2159 180.704 21.4545C180.704 20.6989 180.599 20.0341 180.388 19.4602C180.178 18.8864 179.869 18.4375 179.46 18.1136C179.05 17.7898 178.548 17.6278 177.951 17.6278C177.36 17.6278 176.86 17.7841 176.451 18.0966C176.048 18.4091 175.738 18.8523 175.522 19.4261C175.306 20 175.198 20.6761 175.198 21.4545Z" fill="black"/>
</svg>
